<?xml version="1.0" encoding="UTF-8"?>
<svg id="Capa_2" data-name="Capa 2" xmlns="http://www.w3.org/2000/svg" viewBox="0 0 1120.21 264.12">
  <defs>
    <style>
      .cls-1 {
        stroke-width: 0px;
      }
    </style>
  </defs>
  <g id="Capa_1-2" data-name="Capa 1">
    <g>
      <path class="cls-1" d="m338.85,132.85c0,17.42,1.77,35.09-.65,52.16-1.5,10.59-6.82,23.6-14.85,29.72-21.91,16.7-45.46,31.66-69.88,44.41-8.22,4.29-23.14,3.47-31.32-1.3-26.46-15.46-51.29-33.73-76.6-51.14-13.14-9.04-18-21.83-15.38-37.46,3.59-21.41,23.2-30.92,41.33-19.16,23.19,15.05,46.92,29.67,68.12,47.25,17.19,14.26,42.18-.48,42.08-20.44-.13-25.1.79-50.25-.56-75.27-.37-6.94-5.71-15.38-11.36-19.9-12.34-9.87-26.36-17.63-39.65-26.3-16.17-10.55-21.27-29.21-11.99-43.67,8.78-13.67,24.66-15.28,41.74-4,20.52,13.55,40.73,27.56,61.44,40.81,12,7.68,17.45,18.07,17.29,32.06-.19,17.42-.05,34.84-.05,52.25h.3Z"/>
      <path class="cls-1" d="m.42,130.68c0-16.41.18-32.82-.05-49.22-.2-14.55,5.23-25.5,17.9-33.36,21.78-13.5,43.2-27.59,64.69-41.55,13.52-8.79,26.46-8.87,40,.55,21.88,15.22,44.38,29.55,66.33,44.67,13.36,9.2,18.38,24.32,13.99,39.06-5.56,18.67-23.46,25.97-39.85,15.45-20.7-13.29-40.92-27.32-61.25-41.17-18.61-12.67-42.46-2.79-43.72,19.59-1.47,26.06-1.07,52.3.16,78.39.27,5.78,6.35,12.63,11.58,16.56,12.67,9.52,26.59,17.35,39.66,26.36,14.11,9.73,19.06,25.59,13.3,40.37-6.06,15.57-21.94,22.63-36.28,14.04-25.03-15-49.97-30.43-73.21-47.99-7.27-5.49-11.5-18.12-12.61-27.98-1.99-17.72-.56-35.82-.56-53.77h-.07Z"/>
    </g>
    <g>
      <path class="cls-1" d="m886.66,105.01c.53-11.98.94-21.2,1.4-31.65,5.1-.4,9.78-.77,17.2-1.35,0,7.58-.02,14.2,0,20.82.09,22.6.48,45.21.2,67.8-.23,18.23-10.94,30.09-28.75,30.91-19.12.88-38.31.33-57.48.39-.98,0-1.96-.13-2.93-.29-21.53-3.7-28.36-18.92-25.75-57.43,1.27-18.8,10.92-28.61,30.17-29.08,21.5-.53,43.03-.12,65.94-.12Zm.59,16.35c-16.25,0-30.01-.04-43.77,0-36.14.13-37.2,1.3-34.63,37.59.36,8.84,8.78,14.84,13.59,15.28,16.59,1.52,33.53,1.61,50.09-.11,5.3-.55,13.17-7.87,14.05-13.07,2.08-12.32.67-25.23.67-39.69Z"/>
      <path class="cls-1" d="m1102.21,139.8s-1.08-18.24-25.5-18.22c-20.56.02-41.13,0-61.44,0-4.15-10.84-3.11-16.48,8.84-16.36,20.64.22,41.3-.6,61.93-.23,23.32.42,33.57,11.36,33.89,35.07.16,12.29-.2,24.59.25,36.86.39,10.52-3.7,15.34-14.62,15.16-23.1-.38-46.21.17-69.31-.22-19.31-.32-28.72-10.09-28.19-28.11.48-16.45,9.41-24.23,28.32-24.38,13.76-.1,27.57-.6,41.28.35,7.59.53,24.54.06,24.54.06Zm-1.31,14.75c-21.63,0-44.85-.78-65.69.25-3.87.19-8,2-8.25,10.86,1.25,7.14,5.12,9.03,8.25,9.14,21.74.81,43.76.2,65.69.2v-20.45Z"/>
      <path class="cls-1" d="m753.9,174.99c0-14.95.43-28.15-.14-41.31-.44-10.27-7.81-12.28-16.66-12.21-23.06.18-46.13.06-70.57.06-.29-5.75-.52-10.27-.82-16.22,27.96,0,54.49-.95,80.9.36,15.73.78,24.81,12.05,25.33,27.62.49,14.75.07,29.54.12,44.31.03,9.7-4.32,14.31-14.41,14.2-23.14-.24-46.29.4-69.42.02-18.42-.3-27.52-9.98-27.24-27.56.26-16.71,8.88-24.5,27.95-24.78,15.26-.22,30.53.01,45.79-.15,8.63-.09,14.25,2.82,14.39,15.08-16.12,0-32.05,0-47.98,0-3.94,0-12.65.97-13.13,1.31-6.1,4.35-6.39,13.54-.15,17.69.98.65,1.96,1.06,2.97,1.11,20.12,1,40.31.46,63.07.46Z"/>
      <path class="cls-1" d="m511.18,104.95v16.61c-23.43,0-46.44-.08-69.45.02-17.47.08-19.43,2.1-19.95,19.52q-1,33.7,32.61,33.66c18.59-.02,55.33,0,55.33,0l-.51,16.04s-52.29,1.41-73.46,1.14c-19.55-.25-31.66-11.61-32.09-31.06-.88-39.31-4.85-58.55,52.43-56.06,18.1.79,36.26.12,55.09.12Z"/>
      <path class="cls-1" d="m529.21,105.8c6.15-.3,10.7-.22,18.05-.58,0,16.49-.1,31.97.02,47.45.16,20.56,1.82,22.19,21.71,22.23,12.29.02,24.62-.65,36.85.21,14,.99,19.9-4.42,19.34-18.57-.64-16.16,1.03-51.73,1.03-51.73h17s.61,41.57.39,55.32c-.33,20.41-10.6,31.12-30.74,31.61-17.68.43-35.4.42-53.08-.05-19.27-.51-30.27-11.47-30.64-30.37-.36-18.06.07-36.43.07-55.52Z"/>
      <path class="cls-1" d="m924.89,190.23c0-20.46-.56-40.1.19-59.69.52-13.46,10.64-23.74,24.86-24.81,15.07-1.13,30.29-.25,46.62-.25.3,5.17.54,9.31.77,13.32-2.19,1.03-3.43,2.07-4.73,2.15-4.9.32-9.81.39-14.73.44q-34.75.32-34.8,34.36c0,7.37-.5,14.79.17,22.1,1.24,13.53-4.99,16.32-18.37,12.37Z"/>
    </g>
  </g>
</svg>