<?xml version="1.0" encoding="UTF-8"?>
<svg id="Capa_2" data-name="Capa 2" xmlns="http://www.w3.org/2000/svg" viewBox="0 0 716.95 550.3">
  <defs>
    <style>
      .cls-1 {
        stroke-width: 0px;
      }
    </style>
  </defs>
  <g id="Capa_1-2" data-name="Capa 1">
    <g>
      <path class="cls-1" d="m612.75,199.75c0,26.19,2.66,52.75-.98,78.43-2.26,15.92-10.26,35.48-22.33,44.68-32.94,25.11-68.36,47.61-105.07,66.77-12.36,6.45-34.79,5.22-47.08-1.96-39.79-23.24-77.12-50.72-115.18-76.89-19.76-13.59-27.07-32.82-23.12-56.33,5.4-32.19,34.89-46.49,62.14-28.81,34.87,22.62,70.55,44.61,102.42,71.04,25.85,21.44,63.43-.73,63.27-30.74-.2-37.74,1.19-75.55-.85-113.18-.56-10.43-8.59-23.13-17.08-29.92-18.55-14.83-39.63-26.51-59.62-39.54-24.32-15.86-31.99-43.92-18.02-65.66,13.2-20.55,37.08-22.97,62.76-6.01,30.85,20.37,61.24,41.44,92.38,61.35,18.05,11.54,26.23,27.17,26,48.2-.29,26.19-.07,52.38-.07,78.57h.45Z"/>
      <path class="cls-1" d="m103.9,196.49c0-24.67.26-49.34-.08-74-.3-21.87,7.86-38.34,26.92-50.15,32.75-20.3,64.96-41.49,97.27-62.48,20.34-13.21,39.78-13.33,60.14.82,32.9,22.88,66.72,44.43,99.73,67.16,20.09,13.83,27.64,36.56,21.03,58.73-8.37,28.06-35.28,39.05-59.92,23.23-31.12-19.98-61.52-41.08-92.1-61.9-27.98-19.06-63.84-4.2-65.74,29.45-2.21,39.19-1.61,78.64.23,117.87.41,8.69,9.55,18.98,17.41,24.89,19.04,14.32,39.98,26.09,59.64,39.64,21.22,14.62,28.66,38.48,20,60.7-9.12,23.41-32.98,34.03-54.55,21.11-37.64-22.55-75.14-45.75-110.07-72.15-10.93-8.26-17.3-27.24-18.96-42.08-2.99-26.64-.84-53.86-.84-80.84h-.11Z"/>
    </g>
    <g>
      <path class="cls-1" d="m483.4,463.21c.53-11.98.94-21.2,1.4-31.65,5.1-.4,9.78-.77,17.2-1.35,0,7.58-.02,14.2,0,20.82.09,22.6.48,45.21.2,67.8-.23,18.23-10.94,30.09-28.75,30.91-19.12.88-38.31.33-57.48.39-.98,0-1.96-.13-2.93-.29-21.53-3.7-28.36-18.92-25.75-57.43,1.27-18.8,10.92-28.61,30.17-29.08,21.5-.53,43.03-.12,65.94-.12Zm.59,16.35c-16.25,0-30.01-.04-43.77,0-36.14.13-37.2,1.3-34.63,37.59.36,8.84,8.78,14.84,13.59,15.28,16.59,1.52,33.53,1.61,50.09-.11,5.3-.55,13.17-7.87,14.05-13.07,2.08-12.32.67-25.23.67-39.69Z"/>
      <path class="cls-1" d="m698.95,498s-1.08-18.24-25.5-18.22c-20.56.02-41.13,0-61.44,0-4.15-10.84-3.11-16.48,8.84-16.36,20.64.22,41.3-.6,61.93-.23,23.32.42,33.57,11.36,33.89,35.07.16,12.29-.2,24.59.25,36.86.39,10.52-3.7,15.34-14.62,15.16-23.1-.38-46.21.17-69.31-.22-19.31-.32-28.72-10.09-28.19-28.11.48-16.45,9.41-24.23,28.32-24.38,13.76-.1,27.57-.6,41.28.35,7.59.53,24.54.06,24.54.06Zm-1.31,14.75c-21.63,0-44.85-.78-65.69.25-3.87.19-8,2-8.25,10.86,1.25,7.14,5.12,9.03,8.25,9.14,21.74.81,43.76.2,65.69.2v-20.45Z"/>
      <path class="cls-1" d="m350.64,533.19c0-14.95.43-28.15-.14-41.31-.44-10.27-7.81-12.28-16.66-12.21-23.06.18-46.13.06-70.57.06-.29-5.75-.52-10.27-.82-16.22,27.96,0,54.49-.95,80.9.36,15.73.78,24.81,12.05,25.33,27.62.49,14.75.07,29.54.12,44.31.03,9.7-4.32,14.31-14.41,14.2-23.14-.24-46.29.4-69.42.02-18.42-.3-27.52-9.98-27.24-27.56.26-16.71,8.88-24.5,27.95-24.78,15.26-.22,30.53.01,45.79-.15,8.63-.09,14.25,2.82,14.39,15.08-16.12,0-32.05,0-47.98,0-3.94,0-12.65.97-13.13,1.31-6.1,4.35-6.39,13.54-.15,17.69.98.65,1.96,1.06,2.97,1.11,20.12,1,40.31.46,63.07.46Z"/>
      <path class="cls-1" d="m107.92,463.15v16.61c-23.43,0-46.44-.08-69.45.02-17.47.08-19.43,2.1-19.95,19.52q-1,33.7,32.61,33.66c18.59-.02,55.33,0,55.33,0l-.51,16.04s-52.29,1.41-73.46,1.14c-19.55-.25-31.66-11.61-32.09-31.06-.88-39.31-4.85-58.55,52.43-56.06,18.1.79,36.26.12,55.09.12Z"/>
      <path class="cls-1" d="m125.95,464c6.15-.3,10.7-.22,18.05-.58,0,16.49-.1,31.97.02,47.45.16,20.56,1.82,22.19,21.71,22.23,12.29.02,24.62-.65,36.85.21,14,.99,19.9-4.42,19.34-18.57-.64-16.16,1.03-51.73,1.03-51.73h17s.61,41.57.39,55.32c-.33,20.41-10.6,31.12-30.74,31.61-17.68.43-35.4.42-53.08-.05-19.27-.51-30.27-11.47-30.64-30.37-.36-18.06.07-36.43.07-55.52Z"/>
      <path class="cls-1" d="m521.63,548.43c0-20.46-.56-40.1.19-59.69.52-13.46,10.64-23.74,24.86-24.81,15.07-1.13,30.29-.25,46.62-.25.3,5.17.54,9.31.77,13.32-2.19,1.03-3.43,2.07-4.73,2.15-4.9.32-9.81.39-14.73.44q-34.75.32-34.8,34.36c0,7.37-.5,14.79.17,22.1,1.24,13.53-4.99,16.32-18.37,12.37Z"/>
    </g>
  </g>
</svg>