<?xml version="1.0" encoding="UTF-8"?>
<svg id="Capa_2" data-name="Capa 2" xmlns="http://www.w3.org/2000/svg" viewBox="0 0 92.06 109.31">
  <defs>
    <style>
      .cls-1 {
        stroke-width: 0px;
      }
    </style>
  </defs>
  <g id="Capa_1-2" data-name="Capa 1">
    <path class="cls-1" d="m0,54.07C0,47.57-.01,41.07.01,34.58c.02-5.53,2.23-9.9,6.77-13.2C15.13,15.3,23.35,9.05,31.69,2.97c5.55-4.06,9.58-3.92,12.69.21,3.32,4.4,2.28,11.12-2.39,14.66-6.37,4.83-13.07,9.26-19.09,14.49-2.33,2.02-4.26,5.69-4.46,8.73-.57,8.79-.5,17.67.05,26.46.17,2.72,2.06,6.12,4.25,7.77,5.83,4.39,12.27,7.97,18.43,11.93,3.46,2.22,6.87,2.28,10.29.03,6.12-4.02,12.45-7.78,18.22-12.26,2.03-1.58,3.7-4.91,3.78-7.5.34-10.47,0-20.96-.09-31.45,0-.33-.03-.67-.04-1-.14-6.51,3.64-11.75,8.76-12.13,5.03-.38,9.51,4.45,9.8,11.12.27,5.99.07,11.99.07,17.99,0,6.83.09,13.66-.03,20.49-.11,6.76-2.71,12.08-8.74,15.79-9.49,5.85-18.78,12.04-28.11,18.15-5.97,3.91-11.93,3.73-17.82.04-9.73-6.1-19.35-12.39-29.1-18.45C2.57,84.53-.06,79.62.02,73.06c.08-6.33.02-12.66.02-18.99H0Z"/>
  </g>
</svg>