<?xml version="1.0" encoding="UTF-8"?>
<svg id="Capa_2" data-name="Capa 2" xmlns="http://www.w3.org/2000/svg" viewBox="0 0 101.84 107.08">
  <defs>
    <style>
      .cls-1 {
        stroke-width: 0px;
      }
    </style>
  </defs>
  <g id="Capa_1-2" data-name="Capa 1">
    <g>
      <path class="cls-1" d="m.1,59.86c0-5.83-.04-11.66.01-17.48.05-5.28,2.34-9.17,7.16-11.64,4.14-2.12,7.99-4.85,12.24-6.73,3.26-1.44,6.91-2.62,10.42-2.75,5.79-.21,10.45,4.81,10.63,10.45.18,5.67-4.05,10.82-9.59,11.68-8.05,1.25-9.73,2.9-9.58,10.91.41,20.92-3.31,16.42,15.47,27.47,2.87,1.69,5.78,3.33,8.5,5.23,5.18,3.61,6.67,10.38,3.58,15.42-3.04,4.93-9.15,6.12-14.89,2.75-9.33-5.47-18.59-11.05-27.9-16.55C1.84,86.07.1,82.13.04,77.34c-.08-5.83-.02-11.66-.02-17.48.03,0,.06,0,.08,0Z"/>
      <path class="cls-1" d="m101.74,48.07c0,6.33.08,12.66-.02,18.99-.11,6.93-4.27,11.39-10.49,11.47-6.49.09-10.78-4.38-10.86-11.61-.1-8.99-.12-17.99,0-26.98.06-4.4-1.37-7.62-5.32-9.9-5.77-3.32-11.39-6.9-16.99-10.5-3.86-2.48-5.46-6.21-4.98-10.71.47-4.35,2.67-7.82,7.07-8.63,2.54-.47,5.8-.14,7.99,1.12,9.52,5.46,18.8,11.36,28.11,17.19,3.83,2.4,5.53,6.1,5.56,10.56.04,6.33,0,12.66,0,18.99h-.09Z"/>
    </g>
  </g>
</svg>