<?xml version="1.0" encoding="UTF-8"?>
<svg id="Capa_2" data-name="Capa 2" xmlns="http://www.w3.org/2000/svg" viewBox="0 0 325.98 253.62">
  <defs>
    <style>
      .cls-1 {
        stroke-width: 0px;
      }
    </style>
  </defs>
  <g id="Capa_1-2" data-name="Capa 1">
    <path class="cls-1" d="m325.38,127.57c0,16.72,1.7,33.69-.62,50.09-1.44,10.16-6.55,22.66-14.26,28.54-21.04,16.04-43.66,30.41-67.11,42.64-7.89,4.12-22.22,3.33-30.07-1.25-25.41-14.84-49.26-32.39-73.56-49.1-12.62-8.68-17.29-20.96-14.77-35.97,3.45-20.56,22.28-29.69,39.69-18.4,22.27,14.45,45.06,28.49,65.41,45.37,16.51,13.69,40.51-.47,40.41-19.63-.13-24.1.76-48.25-.54-72.28-.36-6.66-5.49-14.77-10.91-19.11-11.85-9.47-25.31-16.93-38.08-25.25-15.53-10.13-20.43-28.05-11.51-41.94,8.43-13.12,23.68-14.67,40.08-3.84,19.7,13.01,39.11,26.47,59,39.18,11.53,7.37,16.75,17.35,16.6,30.79-.19,16.72-.04,33.45-.04,50.18h.29Z"/>
    <path class="cls-1" d="m.41,125.48c0-15.75.17-31.51-.05-47.26-.19-13.97,5.02-24.49,17.19-32.03,20.92-12.96,41.48-26.49,62.12-39.9,12.99-8.44,25.41-8.52,38.41.53,21.01,14.61,42.61,28.37,63.69,42.89,12.83,8.83,17.65,23.35,13.43,37.51-5.34,17.92-22.53,24.94-38.27,14.84-19.87-12.76-39.29-26.23-58.82-39.53-17.87-12.17-40.77-2.68-41.98,18.81-1.41,25.03-1.03,50.23.15,75.28.26,5.55,6.1,12.12,11.12,15.9,12.16,9.15,25.53,16.66,38.09,25.32,13.55,9.34,18.3,24.58,12.78,38.77-5.82,14.95-21.06,21.73-34.84,13.48-24.04-14.4-47.98-29.22-70.3-46.08-6.98-5.28-11.05-17.4-12.11-26.87-1.91-17.02-.54-34.4-.54-51.63h-.07Z"/>
  </g>
</svg>