<?xml version="1.0" encoding="UTF-8"?>
<svg id="Capa_2" data-name="Capa 2" xmlns="http://www.w3.org/2000/svg" viewBox="0 0 96.05 101.47">
  <defs>
    <style>
      .cls-1 {
        stroke-width: 0px;
      }
    </style>
  </defs>
  <g id="Capa_1-2" data-name="Capa 1">
    <g>
      <path class="cls-1" d="m39.74,0c5.06.22,8.04,2.3,9.28,6.43,1.39,4.63.18,8.71-3.88,11.36-6.54,4.27-13.21,8.37-20,12.21-3.97,2.25-5.64,5.25-5.45,9.73.22,5.15-.06,10.32.14,15.47.16,4.29,2.01,5.23,5.82,3.24,1.32-.69,2.56-1.55,3.87-2.28,4.87-2.72,9.56-1.88,12.29,2.17,2.74,4.07,2.09,10.05-2.15,12.92-4.79,3.24-9.99,5.93-15.24,8.37-1.72.8-4.46.76-6.18-.05-5.08-2.42-10.22-4.99-14.65-8.39-1.99-1.53-3.25-5.13-3.34-7.84C-.13,52.38.02,41.39.12,30.41c.05-4.97,2.01-8.87,6.55-11.51C16.3,13.3,25.77,7.44,35.35,1.77c1.53-.91,3.33-1.36,4.38-1.77Z"/>
      <path class="cls-1" d="m96.01,54.38c0,6,0,12,0,18,0,4.73-2.01,8.3-6.09,10.73-9.16,5.45-18.28,10.97-27.46,16.39-5.63,3.33-10.71,2.38-13.42-2.36-2.84-4.95-1.24-11.37,3.78-14.4,5.7-3.45,11.34-7.06,17.31-9.97,4.99-2.43,6.46-6.04,6.33-11.23-.23-8.83-.15-17.66.02-26.49.08-4.42,2.39-7.35,6.71-8.92,4.06-1.47,7.45-.33,9.9,2.59,1.57,1.88,2.6,4.7,2.75,7.17.38,6.14.13,12.33.13,18.49.02,0,.03,0,.05,0Z"/>
    </g>
  </g>
</svg>