<?xml version="1.0" encoding="UTF-8"?>
<svg id="Capa_2" data-name="Capa 2" xmlns="http://www.w3.org/2000/svg" viewBox="0 0 99.56 103">
  <defs>
    <style>
      .cls-1 {
        stroke-width: 0px;
      }
    </style>
  </defs>
  <g id="Capa_1-2" data-name="Capa 1">
    <path class="cls-1" d="m99.56,55.88c0,6.5,0,13,0,19.49,0,5.56-2.02,9.85-7.03,12.87-6.56,3.95-12.82,8.39-19.25,12.55-5.05,3.26-9.05,3.05-12.8-1.56-5.02-6.17-9.74-12.64-14.01-19.34-1.34-2.11-1.54-5.53-1.04-8.11,1.16-5.92,8-7.97,12.35-3.82,3.24,3.09,6.05,6.65,9.03,10.02,4.33,4.89,10.76,3.55,13.03-2.86.65-1.83.83-3.91.85-5.88.11-8.33,0-16.66.13-24.99.06-4.26-1.58-7.31-5.29-9.44-6.79-3.9-13.51-7.9-20.23-11.91-3.8-2.27-7.57-2.21-11.35-.02-6.78,3.91-13.79,7.49-20.19,11.94-2.34,1.62-4.36,5.24-4.57,8.1-.62,8.12-.59,16.34-.02,24.46.19,2.65,2.24,5.96,4.45,7.53,5,3.54,10.66,6.14,15.99,9.22,5.43,3.13,7.42,9.64,4.55,14.51-2.72,4.62-8.19,5.48-14.01,2.15-7.66-4.38-15.24-8.91-22.97-13.16-4.97-2.72-7.04-6.95-7.08-12.28C-.02,62.03-.02,48.7.03,35.37c.02-5.57,2.33-9.93,7.26-12.82C18.93,15.74,30.51,8.83,42.18,2.08c5.22-3.02,10.58-2.62,15.7.33,11.82,6.83,23.59,13.74,35.35,20.68,4.64,2.74,6.22,7.2,6.28,12.3.08,6.83.02,13.66.02,20.49h.03Z"/>
  </g>
</svg>