<?xml version="1.0" encoding="UTF-8"?>
<svg id="Capa_2" data-name="Capa 2" xmlns="http://www.w3.org/2000/svg" viewBox="0 0 104.22 111.41">
  <defs>
    <style>
      .cls-1 {
        stroke-width: 0px;
      }
    </style>
  </defs>
  <g id="Capa_1-2" data-name="Capa 1">
    <g>
      <path class="cls-1" d="m104.19,57.31c0,6.33-.08,12.66.02,18.98.11,6.94-2.64,12.12-8.71,15.67-9.47,5.55-18.8,11.35-28.25,16.95-5.42,3.22-10.99,3.29-16.64.38q-16.15-8.32-16.08-26.4c.03-9.82-.01-19.65-.09-29.47-.06-7.51,3.75-12.18,10.1-12.24,6-.05,9.9,4.64,9.9,11.89,0,10.16-.08,20.31.02,30.47.07,6.51,3.36,8.35,9.02,5.11,5.2-2.97,10.26-6.2,15.48-9.12,3.59-2.01,5.19-4.88,5.15-8.94-.12-11.15-.06-22.3-.21-33.45-.06-4.27.92-7.94,4.72-10.34,6.86-4.34,15,.31,15.4,9.05.33,7.14.07,14.32.07,21.47.03,0,.06,0,.09,0Z"/>
      <path class="cls-1" d="m19.74,56.21c.28,5.98.56,11.96.82,17.94.24,5.58-3.18,10.35-7.98,11.18-5.15.89-10.71-2.8-12.1-8.2-.41-1.58-.46-3.29-.47-4.94C-.02,59.84.05,47.51,0,35.18c-.03-6.94,2.68-12.05,8.85-15.58,9.25-5.29,18.33-10.89,27.43-16.43,6.77-4.13,13.46-4.28,20.25-.08,2.55,1.58,5.31,2.82,7.78,4.49,4.38,2.96,5.62,8.88,3.01,13.3-2.48,4.2-8.5,6.51-12.61,3.54-6.95-5.02-12.56-3.11-18.53,1.37-2.91,2.19-6.2,3.92-9.46,5.59-4.68,2.4-6.75,6.21-6.76,11.32-.01,4.5,0,9,0,13.5-.08,0-.15,0-.23.01Z"/>
    </g>
  </g>
</svg>